# xmcd
#
# Track frame offsets:
#	150
#	7205
#	24910
#	33705
#	49510
#	60628
#	72458
#	87535
#	99745
#	112400
#	123513
#	140008
#	153330
#	171738
#	187018
#	207013
#
# Disc length: 2874 seconds
#
# Revision: 1
# Processed by: cddbd v1.4b42PL1 Copyright (c) Steve Scherf et al.
# Submitted via: audiograbber 1.80
#
DISCID=f50b3810
DTITLE=Various Artist - Military Band Favourites
DYEAR=1900
DGENRE=
TTITLE0=There's Something About a Soldier
TTITLE1=Anchors Aweigh
TTITLE2=A Bridge Too Far
TTITLE3=The Dambusters March
TTITLE4=The Longest Day
TTITLE5=Reach for the Sky
TTITLE6=The Amethyst March
TTITLE7=633 Squadron
TTITLE8=Tribute to Bravery
TTITLE9=Soldier to The Queen
TTITLE10=Heart of Oak (Medley)...Rule Brittania
TTITLE11=Lilliburlero
TTITLE12=Men O' Wales...Men of Harlech
TTITLE13=Sarie Marais
TTITLE14=The Pride O' Them 'A'...We're No Awa To Bide Awa
TTITLE15=The Atholl Highlands
EXTD=
EXTT0=
EXTT1=
EXTT2=
EXTT3=
EXTT4=
EXTT5=
EXTT6=
EXTT7=
EXTT8=
EXTT9=
EXTT10=
EXTT11=
EXTT12=
EXTT13=
EXTT14=
EXTT15=
PLAYORDER=
